# xmcd
#
# Track frame offsets:
#  150
#  18047
#  31930
#  49665
#  63577
#  79990
#  99007
#  116395
#  125087
#  150062
#  168825
#
# Disc length: 2552 seconds
#
# Revision: 1
# Processed by: cddbd v1.5.1PL0 Copyright (c) Steve Scherf et al.
# Submitted via: Collectorz.com_Music_Collector 6.9
#
DISCID=7309f60b
DTITLE=Bee's Knees - Long Before
DYEAR=2005
DGENRE=Alt. Americana - Country
TTITLE0=Another Day
TTITLE1=Dear Carpenter
TTITLE2=The Cause
TTITLE3=I Don't Know Why
TTITLE4=Down The Line
TTITLE5=Saturday Sigh
TTITLE6=Flashlight
TTITLE7=Point Of View
TTITLE8=Kristi
TTITLE9=Stoney Creek
TTITLE10=I Don't Mind
EXTD=
EXTT0=
EXTT1=
EXTT2=
EXTT3=
EXTT4=
EXTT5=
EXTT6=
EXTT7=
EXTT8=
EXTT9=
EXTT10=
PLAYORDER=
